<svg width="32" height="32" viewBox="0 0 32 32" fill="none" xmlns="http://www.w3.org/2000/svg">
<circle cx="16" cy="16" r="16" fill="#1B232F"/>
<path d="M7.312 13.312L3.856 21.44C3.78133 21.6427 3.664 21.8027 3.504 21.92C3.35467 22.0267 3.18933 22.08 3.008 22.08C2.72 22.08 2.50667 22 2.368 21.84C2.22933 21.68 2.16 21.4827 2.16 21.248C2.16 21.152 2.176 21.0507 2.208 20.944L6.192 11.376C6.27733 11.1627 6.40533 10.9973 6.576 10.88C6.75733 10.7627 6.94933 10.7147 7.152 10.736C7.344 10.736 7.52 10.7947 7.68 10.912C7.85067 11.0187 7.97333 11.1733 8.048 11.376L11.984 20.752C12.0373 20.8907 12.064 21.0187 12.064 21.136C12.064 21.424 11.968 21.6533 11.776 21.824C11.5947 21.9947 11.392 22.08 11.168 22.08C10.976 22.08 10.8 22.0213 10.64 21.904C10.4907 21.7867 10.3733 21.6267 10.288 21.424L6.848 13.408L7.312 13.312ZM4.352 19.488L5.232 17.648H9.552L9.856 19.488H4.352ZM14.1068 21.984C13.7974 21.984 13.5574 21.904 13.3868 21.744C13.2268 21.5733 13.1468 21.3333 13.1468 21.024V20.752C13.1468 20.4427 13.2268 20.208 13.3868 20.048C13.5574 19.8773 13.7974 19.792 14.1068 19.792H14.3148C14.6241 19.792 14.8588 19.8773 15.0188 20.048C15.1894 20.208 15.2748 20.4427 15.2748 20.752V21.024C15.2748 21.3333 15.1894 21.5733 15.0188 21.744C14.8588 21.904 14.6241 21.984 14.3148 21.984H14.1068ZM18.4111 10.784C18.5605 10.784 18.7151 10.8267 18.8751 10.912C19.0458 10.9867 19.1738 11.088 19.2591 11.216L23.1471 17.2L22.3471 17.168L26.3311 11.216C26.5338 10.928 26.7951 10.784 27.1151 10.784C27.3711 10.784 27.6005 10.8747 27.8031 11.056C28.0058 11.2373 28.1071 11.472 28.1071 11.76V21.024C28.1071 21.3013 28.0165 21.536 27.8351 21.728C27.6538 21.9093 27.4138 22 27.1151 22C26.8165 22 26.5711 21.9093 26.3791 21.728C26.1978 21.536 26.1071 21.3013 26.1071 21.024V13.488L26.7311 13.632L23.4671 18.608C23.3711 18.7253 23.2485 18.8267 23.0991 18.912C22.9605 18.9973 22.8165 19.0347 22.6671 19.024C22.5285 19.0347 22.3845 18.9973 22.2351 18.912C22.0965 18.8267 21.9791 18.7253 21.8831 18.608L18.8271 13.776L19.2431 12.928V21.024C19.2431 21.3013 19.1578 21.536 18.9871 21.728C18.8165 21.9093 18.5925 22 18.3151 22C18.0485 22 17.8298 21.9093 17.6591 21.728C17.4885 21.536 17.4031 21.3013 17.4031 21.024V11.76C17.4031 11.4933 17.4991 11.264 17.6911 11.072C17.8938 10.88 18.1338 10.784 18.4111 10.784Z" fill="#FF871D"/>
</svg>
